<?xml version="1.0" encoding="UTF-8" standalone="no"?>
<!-- Generator: Adobe Illustrator 19.2.1, SVG Export Plug-In . SVG Version: 6.00 Build 0)  -->

<svg
   xmlns:dc="http://purl.org/dc/elements/1.1/"
   xmlns:cc="http://creativecommons.org/ns#"
   xmlns:rdf="http://www.w3.org/1999/02/22-rdf-syntax-ns#"
   xmlns:svg="http://www.w3.org/2000/svg"
   xmlns="http://www.w3.org/2000/svg"
   xmlns:xlink="http://www.w3.org/1999/xlink"
   xmlns:sodipodi="http://sodipodi.sourceforge.net/DTD/sodipodi-0.dtd"
   xmlns:inkscape="http://www.inkscape.org/namespaces/inkscape"
   version="1.1"
   id="Layer_1"
   x="0px"
   y="0px"
   width="64"
   height="64"
   viewBox="0 0 64 64"
   style="enable-background:new 0 0 64 64;"
   xml:space="preserve"
   sodipodi:docname="icon-m-share-sms.svg"
   inkscape:version="0.92.1 r15371"><metadata
     id="metadata27"><rdf:RDF><cc:Work
         rdf:about=""><dc:format>image/svg+xml</dc:format><dc:type
           rdf:resource="http://purl.org/dc/dcmitype/StillImage" /><dc:title></dc:title></cc:Work></rdf:RDF></metadata><defs
     id="defs25"><linearGradient
       inkscape:collect="always"
       id="linearGradient4572"><stop
         style="stop-color:#ffcc00;stop-opacity:1;"
         offset="0"
         id="stop4568" /><stop
         style="stop-color:#ffcc00;stop-opacity:0;"
         offset="1"
         id="stop4570" /></linearGradient><linearGradient
       inkscape:collect="always"
       xlink:href="#linearGradient4572"
       id="linearGradient4574"
       x1="64"
       y1="64"
       x2="-59.661018"
       y2="-58.847458"
       gradientUnits="userSpaceOnUse" /></defs><sodipodi:namedview
     pagecolor="#ffffff"
     bordercolor="#666666"
     borderopacity="1"
     objecttolerance="10"
     gridtolerance="10"
     guidetolerance="10"
     inkscape:pageopacity="0"
     inkscape:pageshadow="2"
     inkscape:window-width="1440"
     inkscape:window-height="835"
     id="namedview23"
     showgrid="false"
     inkscape:snap-global="true"
     inkscape:zoom="3.6875"
     inkscape:cx="-9.0847458"
     inkscape:cy="54.043266"
     inkscape:window-x="0"
     inkscape:window-y="0"
     inkscape:window-maximized="1"
     inkscape:current-layer="icon-m-share-mms_2_" /><g
     id="icon-m-share-mms_2_"><rect
       id="icon-m-share-mms_6_"
       style="opacity:0;fill:#FFFFFF;"
       width="64"
       height="64" /><linearGradient
       id="icon-m-share-mms_1_"
       gradientUnits="userSpaceOnUse"
       x1="-7.194103e-010"
       y1="7.175913e-010"
       x2="64"
       y2="64"><stop
         offset="0.0049"
         style="stop-color:#08C0CC"
         id="stop3" /><stop
         offset="1"
         style="stop-color:#1C8C79"
         id="stop5" /></linearGradient><rect
       id="icon-m-share-mms"
       style="fill:url(#linearGradient4574);fill-opacity:1"
       width="64"
       height="64" /><g
       id="icon-m-share-mms_7_"><g
         id="icon-m-share-mms_3_"><g
           id="icon-m-share-mms_5_"><path
             style="opacity:0.9;fill:#97FFF8;"
             d="M32,6.177c13.44,0,24.335,9.91,24.335,22.134v22.135v7.378      c-4.48,0-8.112-3.189-8.112-7.263H32c-13.44,0-24.335-10.025-24.335-22.25C7.665,16.087,18.56,6.177,32,6.177z"
             id="path9" /></g></g><g
         id="icon-m-share-mms_4_"><path
           style="opacity:0.8;fill:#7E3659;"
           d="M24.102,29.47c0,1.973-1.599,3.572-3.572,3.572h-0.893     c-1.973,0-3.572-1.599-3.572-3.572v-0.893c0-1.972,1.599-3.572,3.572-3.572h0.893c1.973,0,3.572,1.6,3.572,3.572V29.47z"
           id="path13" /><path
           style="opacity:0.8;fill:#7E3659;"
           d="M36.019,29.47c0,1.973-1.599,3.572-3.572,3.572h-0.893     c-1.973,0-3.572-1.599-3.572-3.572v-0.893c0-1.972,1.599-3.572,3.572-3.572h0.893c1.973,0,3.572,1.6,3.572,3.572V29.47z"
           id="path15" /><path
           style="opacity:0.8;fill:#7E3659;"
           d="M47.926,29.47c0,1.973-1.599,3.572-3.572,3.572h-0.893     c-1.973,0-3.572-1.599-3.572-3.572v-0.893c0-1.972,1.599-3.572,3.572-3.572h0.893c1.973,0,3.572,1.6,3.572,3.572V29.47z"
           id="path17" /></g></g></g></svg>